{
    "asset" : {
        "generator" : "Khronos glTF Blender I/O v1.8.19",
        "version" : "2.0"
    },
    "scene" : 0,
    "scenes" : [
        {
            "name" : "Scene",
            "nodes" : [
                0,
                1
            ]
        }
    ],
    "nodes" : [
        {
            "mesh" : 0,
            "name" : "Circle.001",
            "rotation" : [
                0,
                0,
                -0.7071068286895752,
                0.7071068286895752
            ],
            "scale" : [
                0.7953969240188599,
                1,
                0.7953969240188599
            ],
            "translation" : [
                0.7757573127746582,
                3,
                0
            ]
        },
        {
            "mesh" : 1,
            "name" : "Text",
            "rotation" : [
                0,
                0.7071068286895752,
                -0.7071068286895752,
                -3.090862321641907e-08
            ],
            "scale" : [
                0.33993566036224365,
                1,
                0.33993566036224365
            ],
            "translation" : [
                -1.8184715509414673,
                3.576028823852539,
                -0.9443304538726807
            ]
        }
    ],
    "materials" : [
        {
            "doubleSided" : true,
            "name" : "Material",
            "pbrMetallicRoughness" : {
                "baseColorFactor" : [
                    0.8000000715255737,
                    0.23323510587215424,
                    0,
                    1
                ],
                "metallicFactor" : 0,
                "roughnessFactor" : 0.4000000059604645
            }
        },
        {
            "doubleSided" : true,
            "name" : "Material.001",
            "pbrMetallicRoughness" : {
                "baseColorFactor" : [
                    0,
                    0,
                    0,
                    1
                ],
                "metallicFactor" : 0,
                "roughnessFactor" : 0.5
            }
        },
        {
            "doubleSided" : true,
            "name" : "Material.002",
            "pbrMetallicRoughness" : {
                "baseColorFactor" : [
                    0.800000011920929,
                    0.800000011920929,
                    0.800000011920929,
                    1
                ],
                "metallicFactor" : 0,
                "roughnessFactor" : 0.5
            }
        }
    ],
    "meshes" : [
        {
            "name" : "Circle.001",
            "primitives" : [
                {
                    "attributes" : {
                        "POSITION" : 0,
                        "NORMAL" : 1,
                        "TEXCOORD_0" : 2
                    },
                    "indices" : 3,
                    "material" : 0
                },
                {
                    "attributes" : {
                        "POSITION" : 4,
                        "NORMAL" : 5,
                        "TEXCOORD_0" : 6
                    },
                    "indices" : 7,
                    "material" : 1
                },
                {
                    "attributes" : {
                        "POSITION" : 8,
                        "NORMAL" : 9,
                        "TEXCOORD_0" : 10
                    },
                    "indices" : 11,
                    "material" : 2
                }
            ]
        },
        {
            "name" : "Text",
            "primitives" : [
                {
                    "attributes" : {
                        "POSITION" : 12,
                        "NORMAL" : 13,
                        "TEXCOORD_0" : 14
                    },
                    "indices" : 15,
                    "material" : 1
                }
            ]
        }
    ],
    "accessors" : [
        {
            "bufferView" : 0,
            "componentType" : 5126,
            "count" : 474,
            "max" : [
                1.2572340965270996,
                0.14175257086753845,
                1.2572338581085205
            ],
            "min" : [
                -1.257233738899231,
                0,
                -1.2572338581085205
            ],
            "type" : "VEC3"
        },
        {
            "bufferView" : 1,
            "componentType" : 5126,
            "count" : 474,
            "type" : "VEC3"
        },
        {
            "bufferView" : 2,
            "componentType" : 5126,
            "count" : 474,
            "type" : "VEC2"
        },
        {
            "bufferView" : 3,
            "componentType" : 5123,
            "count" : 822,
            "type" : "SCALAR"
        },
        {
            "bufferView" : 4,
            "componentType" : 5126,
            "count" : 810,
            "max" : [
                1.2572340965270996,
                0.13548731803894043,
                1.2572338581085205
            ],
            "min" : [
                -1.2572336196899414,
                -1.959136962890625,
                -1.2572338581085205
            ],
            "type" : "VEC3"
        },
        {
            "bufferView" : 5,
            "componentType" : 5126,
            "count" : 810,
            "type" : "VEC3"
        },
        {
            "bufferView" : 6,
            "componentType" : 5126,
            "count" : 810,
            "type" : "VEC2"
        },
        {
            "bufferView" : 7,
            "componentType" : 5123,
            "count" : 2010,
            "type" : "SCALAR"
        },
        {
            "bufferView" : 8,
            "componentType" : 5126,
            "count" : 314,
            "max" : [
                3.7351396083831787,
                -0.5361876487731934,
                1.2572338581085205
            ],
            "min" : [
                -1.8530831336975098,
                -5.685939311981201,
                -1.2572338581085205
            ],
            "type" : "VEC3"
        },
        {
            "bufferView" : 9,
            "componentType" : 5126,
            "count" : 314,
            "type" : "VEC3"
        },
        {
            "bufferView" : 10,
            "componentType" : 5126,
            "count" : 314,
            "type" : "VEC2"
        },
        {
            "bufferView" : 11,
            "componentType" : 5123,
            "count" : 726,
            "type" : "SCALAR"
        },
        {
            "bufferView" : 12,
            "componentType" : 5126,
            "count" : 3052,
            "max" : [
                3.110029935836792,
                0.03999999910593033,
                0.03568568453192711
            ],
            "min" : [
                0.055000003427267075,
                -0.03999999910593033,
                -0.7110472321510315
            ],
            "type" : "VEC3"
        },
        {
            "bufferView" : 13,
            "componentType" : 5126,
            "count" : 3052,
            "type" : "VEC3"
        },
        {
            "bufferView" : 14,
            "componentType" : 5126,
            "count" : 3052,
            "type" : "VEC2"
        },
        {
            "bufferView" : 15,
            "componentType" : 5123,
            "count" : 12384,
            "type" : "SCALAR"
        }
    ],
    "bufferViews" : [
        {
            "buffer" : 0,
            "byteLength" : 5688,
            "byteOffset" : 0
        },
        {
            "buffer" : 0,
            "byteLength" : 5688,
            "byteOffset" : 5688
        },
        {
            "buffer" : 0,
            "byteLength" : 3792,
            "byteOffset" : 11376
        },
        {
            "buffer" : 0,
            "byteLength" : 1644,
            "byteOffset" : 15168
        },
        {
            "buffer" : 0,
            "byteLength" : 9720,
            "byteOffset" : 16812
        },
        {
            "buffer" : 0,
            "byteLength" : 9720,
            "byteOffset" : 26532
        },
        {
            "buffer" : 0,
            "byteLength" : 6480,
            "byteOffset" : 36252
        },
        {
            "buffer" : 0,
            "byteLength" : 4020,
            "byteOffset" : 42732
        },
        {
            "buffer" : 0,
            "byteLength" : 3768,
            "byteOffset" : 46752
        },
        {
            "buffer" : 0,
            "byteLength" : 3768,
            "byteOffset" : 50520
        },
        {
            "buffer" : 0,
            "byteLength" : 2512,
            "byteOffset" : 54288
        },
        {
            "buffer" : 0,
            "byteLength" : 1452,
            "byteOffset" : 56800
        },
        {
            "buffer" : 0,
            "byteLength" : 36624,
            "byteOffset" : 58252
        },
        {
            "buffer" : 0,
            "byteLength" : 36624,
            "byteOffset" : 94876
        },
        {
            "buffer" : 0,
            "byteLength" : 24416,
            "byteOffset" : 131500
        },
        {
            "buffer" : 0,
            "byteLength" : 24768,
            "byteOffset" : 155916
        }
    ],
    "buffers" : [
        {
            "byteLength" : 180684,
            "uri" : "data:application/octet-stream;base64,"
        }
    ]
}
