{
    "asset" : {
        "generator" : "Khronos glTF Blender I/O v1.8.19",
        "version" : "2.0"
    },
    "scene" : 0,
    "scenes" : [
        {
            "name" : "Scene",
            "nodes" : [
                0
            ]
        }
    ],
    "nodes" : [
        {
            "mesh" : 0,
            "name" : "Cylinder",
            "rotation" : [
                0.7071068286895752,
                0,
                0,
                0.7071068286895752
            ],
            "scale" : [
                0.044447124004364014,
                0.15958166122436523,
                0.044447124004364014
            ],
            "translation" : [
                0,
                -0.2788076400756836,
                -1.810929536819458
            ]
        }
    ],
    "materials" : [
        {
            "doubleSided" : true,
            "name" : "Material",
            "pbrMetallicRoughness" : {
                "baseColorFactor" : [
                    0.800000011920929,
                    0.800000011920929,
                    0.800000011920929,
                    1
                ],
                "metallicFactor" : 0,
                "roughnessFactor" : 0.4000000059604645
            }
        }
    ],
    "meshes" : [
        {
            "name" : "Cylinder",
            "primitives" : [
                {
                    "attributes" : {
                        "POSITION" : 0,
                        "NORMAL" : 1,
                        "TEXCOORD_0" : 2
                    },
                    "indices" : 3,
                    "material" : 0
                }
            ]
        }
    ],
    "accessors" : [
        {
            "bufferView" : 0,
            "componentType" : 5126,
            "count" : 23420,
            "max" : [
                20.977954864501953,
                21.859058380126953,
                5.501131057739258
            ],
            "min" : [
                -20.977954864501953,
                -65.502685546875,
                -18.046720504760742
            ],
            "type" : "VEC3"
        },
        {
            "bufferView" : 1,
            "componentType" : 5126,
            "count" : 23420,
            "type" : "VEC3"
        },
        {
            "bufferView" : 2,
            "componentType" : 5126,
            "count" : 23420,
            "type" : "VEC2"
        },
        {
            "bufferView" : 3,
            "componentType" : 5123,
            "count" : 36984,
            "type" : "SCALAR"
        }
    ],
    "bufferViews" : [
        {
            "buffer" : 0,
            "byteLength" : 281040,
            "byteOffset" : 0
        },
        {
            "buffer" : 0,
            "byteLength" : 281040,
            "byteOffset" : 281040
        },
        {
            "buffer" : 0,
            "byteLength" : 187360,
            "byteOffset" : 562080
        },
        {
            "buffer" : 0,
            "byteLength" : 73968,
            "byteOffset" : 749440
        }
    ],
    "buffers" : [
        {
            "byteLength" : 823408,
            "uri" : "data:application/octet-stream;base64,"
        }
    ]
}
