{
    "asset" : {
        "generator" : "Khronos glTF Blender I/O v1.8.19",
        "version" : "2.0"
    },
    "scene" : 0,
    "scenes" : [
        {
            "name" : "Scene",
            "nodes" : [
                0
            ]
        }
    ],
    "nodes" : [
        {
            "mesh" : 0,
            "name" : "Cube",
            "rotation" : [
                0,
                0,
                -0.7071067690849304,
                0.7071068286895752
            ],
            "scale" : [
                -1.6219046115875244,
                0.2851039171218872,
                6.3907575607299805
            ],
            "translation" : [
                0,
                0,
                0.7077350616455078
            ]
        }
    ],
    "materials" : [
        {
            "doubleSided" : true,
            "name" : "Material",
            "pbrMetallicRoughness" : {
                "baseColorFactor" : [
                    0.009017779491841793,
                    0.009017779491841793,
                    0.009017779491841793,
                    1
                ],
                "metallicFactor" : 0,
                "roughnessFactor" : 0.4000000059604645
            }
        },
        {
            "doubleSided" : true,
            "name" : "Material.002",
            "pbrMetallicRoughness" : {
                "baseColorFactor" : [
                    0.07736482471227646,
                    0.07736482471227646,
                    0.07736482471227646,
                    1
                ],
                "metallicFactor" : 0,
                "roughnessFactor" : 0.5
            }
        }
    ],
    "meshes" : [
        {
            "name" : "Cube",
            "primitives" : [
                {
                    "attributes" : {
                        "POSITION" : 0,
                        "NORMAL" : 1,
                        "TEXCOORD_0" : 2
                    },
                    "indices" : 3,
                    "material" : 0
                },
                {
                    "attributes" : {
                        "POSITION" : 4,
                        "NORMAL" : 5,
                        "TEXCOORD_0" : 6
                    },
                    "indices" : 7,
                    "material" : 1
                }
            ]
        }
    ],
    "accessors" : [
        {
            "bufferView" : 0,
            "componentType" : 5126,
            "count" : 2138,
            "max" : [
                1.2994778156280518,
                1,
                1.2136785984039307
            ],
            "min" : [
                -2.0427491664886475,
                -2.2919042110443115,
                -1.5901333093643188
            ],
            "type" : "VEC3"
        },
        {
            "bufferView" : 1,
            "componentType" : 5126,
            "count" : 2138,
            "type" : "VEC3"
        },
        {
            "bufferView" : 2,
            "componentType" : 5126,
            "count" : 2138,
            "type" : "VEC2"
        },
        {
            "bufferView" : 3,
            "componentType" : 5123,
            "count" : 7920,
            "type" : "SCALAR"
        },
        {
            "bufferView" : 4,
            "componentType" : 5126,
            "count" : 3584,
            "max" : [
                0.875,
                2.1427974700927734,
                0.9453125
            ],
            "min" : [
                -1.3144515752792358,
                0.9311383962631226,
                -1
            ],
            "type" : "VEC3"
        },
        {
            "bufferView" : 5,
            "componentType" : 5126,
            "count" : 3584,
            "type" : "VEC3"
        },
        {
            "bufferView" : 6,
            "componentType" : 5126,
            "count" : 3584,
            "type" : "VEC2"
        },
        {
            "bufferView" : 7,
            "componentType" : 5123,
            "count" : 11700,
            "type" : "SCALAR"
        }
    ],
    "bufferViews" : [
        {
            "buffer" : 0,
            "byteLength" : 25656,
            "byteOffset" : 0
        },
        {
            "buffer" : 0,
            "byteLength" : 25656,
            "byteOffset" : 25656
        },
        {
            "buffer" : 0,
            "byteLength" : 17104,
            "byteOffset" : 51312
        },
        {
            "buffer" : 0,
            "byteLength" : 15840,
            "byteOffset" : 68416
        },
        {
            "buffer" : 0,
            "byteLength" : 43008,
            "byteOffset" : 84256
        },
        {
            "buffer" : 0,
            "byteLength" : 43008,
            "byteOffset" : 127264
        },
        {
            "buffer" : 0,
            "byteLength" : 28672,
            "byteOffset" : 170272
        },
        {
            "buffer" : 0,
            "byteLength" : 23400,
            "byteOffset" : 198944
        }
    ],
    "buffers" : [
        {
            "byteLength" : 222344,
            "uri" : "data:application/octet-stream;base64,"
        }
    ]
}
